<?xml version="1.0" encoding="utf-8"?>
<!-- Generator: Adobe Illustrator 23.0.1, SVG Export Plug-In . SVG Version: 6.00 Build 0)  -->
<svg version="1.1" id="Layer_1" xmlns="http://www.w3.org/2000/svg" xmlns:xlink="http://www.w3.org/1999/xlink" x="0px" y="0px"
	 viewBox="0 0 24 24" style="enable-background:new 0 0 24 24;" xml:space="preserve">
<style type="text/css">
	.st0{opacity:0.8;}
	.st1{clip-path:url(#SVGID_2_);}
	.st2{opacity:0.2;fill:#020202;enable-background:new    ;}
	.st3{opacity:0.2;clip-path:url(#SVGID_4_);enable-background:new    ;}
	.st4{fill:#2D2D2D;}
	.st5{opacity:0.2;clip-path:url(#SVGID_6_);}
	.st6{opacity:0.2;clip-path:url(#SVGID_8_);fill:#2D2D2D;}
	.st7{opacity:0.2;clip-path:url(#SVGID_10_);}
	.st8{fill:#020202;}
	.st9{opacity:0.8;clip-path:url(#SVGID_12_);}
	.st10{fill:url(#SVGID_13_);}
	.st11{fill:url(#SVGID_14_);}
</style>
<g>
	<defs>
		<rect id="SVGID_11_" width="24" height="24"/>
	</defs>
	<clipPath id="SVGID_2_">
		<use xlink:href="#SVGID_11_"  style="overflow:visible;"/>
	</clipPath>
	<g style="opacity:0.8;clip-path:url(#SVGID_2_);">
		<linearGradient id="SVGID_4_" gradientUnits="userSpaceOnUse" x1="1.5002" y1="12" x2="22.4998" y2="12">
			<stop  offset="0" style="stop-color:#4D44E8"/>
			<stop  offset="1" style="stop-color:#8C5DE9"/>
		</linearGradient>
		<path style="fill:url(#SVGID_4_);" d="M12,5.14c-4.63,0-8.62,2.73-10.46,6.67c-0.06,0.12-0.06,0.26,0,0.38
			c1.83,3.94,5.83,6.67,10.46,6.67s8.62-2.73,10.46-6.67c0.06-0.12,0.06-0.26,0-0.38C20.62,7.87,16.63,5.14,12,5.14z M12,16.73
			c-2.62,0-4.73-2.12-4.73-4.73c0-2.62,2.12-4.73,4.73-4.73c2.62,0,4.73,2.12,4.73,4.73S14.61,16.73,12,16.73z"/>
		<linearGradient id="SVGID_6_" gradientUnits="userSpaceOnUse" x1="8.97" y1="11.9989" x2="15.03" y2="11.9989">
			<stop  offset="0" style="stop-color:#4D44E8"/>
			<stop  offset="1" style="stop-color:#8C5DE9"/>
		</linearGradient>
		<circle style="fill:url(#SVGID_6_);" cx="12" cy="12" r="3.03"/>
	</g>
</g>
</svg>
